<svg width="512" height="512" viewBox="0 0 512 512" fill="none" xmlns="http://www.w3.org/2000/svg">
<rect width="512" height="512" fill="white"/>
<path d="M0 388C0 319.517 55.5167 264 124 264V264C192.483 264 248 319.517 248 388V512H0V388Z" fill="#948484"/>
<path d="M264 388C264 319.517 319.517 264 388 264V264C456.483 264 512 319.517 512 388V512H264V388Z" fill="#948484"/>
<path fill-rule="evenodd" clip-rule="evenodd" d="M255.5 258.798C301.192 244.078 334.25 201.212 334.25 150.625C334.25 100.038 301.192 57.1721 255.5 42.4523C266.489 38.9121 278.209 37 290.375 37C353.128 37 404 87.8716 404 150.625C404 213.378 353.128 264.25 290.375 264.25C278.209 264.25 266.489 262.338 255.5 258.798ZM255.5 258.798C244.511 262.338 232.791 264.25 220.625 264.25C157.872 264.25 107 213.378 107 150.625C107 87.8716 157.872 37 220.625 37C232.791 37 244.511 38.9121 255.5 42.4523C209.808 57.1721 176.75 100.038 176.75 150.625C176.75 201.212 209.808 244.078 255.5 258.798Z" fill="#948484"/>
</svg>
